REM DIRINDEX 1\2\3,1\2\4,1\2\5,1\2\6
REM DIRNAME cjc157,folder01,folder02,folder03,folder04,folder05
TITLE ""
FILE "043 043.mp3" MP3
  TRACK 01 AUDIO
    TITLE "0:"
    INDEX 01 00:00:00
  TRACK 02 AUDIO
    TITLE "3:cjc157_1631"
    INDEX 01 00:00:09
  TRACK 03 AUDIO
    TITLE "0:"
    INDEX 01 00:01:60
  TRACK 04 AUDIO
    TITLE "4:cjc157_1632"
    INDEX 01 00:02:30
  TRACK 05 AUDIO
    TITLE "0:"
    INDEX 01 00:03:49
  TRACK 06 AUDIO
    TITLE "5:cjc157_1633"
    INDEX 01 00:04:19
  TRACK 07 AUDIO
    TITLE "0:"
    INDEX 01 00:06:51
  TRACK 08 AUDIO
    TITLE "3:cjc157_1634"
    INDEX 01 00:07:27
  TRACK 09 AUDIO
    TITLE "0:"
    INDEX 01 00:08:72
  TRACK 10 AUDIO
    TITLE "4:cjc157_1635"
    INDEX 01 00:09:42
  TRACK 11 AUDIO
    TITLE "0:"
    INDEX 01 00:12:60
  TRACK 12 AUDIO
    TITLE "5:cjc157_1636"
    INDEX 01 00:13:32
  TRACK 13 AUDIO
    TITLE "0:"
    INDEX 01 00:16:32
  TRACK 14 AUDIO
    TITLE "5:cjc157_1637"
    INDEX 01 00:17:00
  TRACK 15 AUDIO
    TITLE "0:"
    INDEX 01 00:19:46
  TRACK 16 AUDIO
    TITLE "3:cjc157_1638"
    INDEX 01 00:20:16
  TRACK 17 AUDIO
    TITLE "0:"
    INDEX 01 00:21:53
  TRACK 18 AUDIO
    TITLE "4:cjc157_1639"
    INDEX 01 00:22:19
  TRACK 19 AUDIO
    TITLE "0:"
    INDEX 01 00:23:40
  TRACK 20 AUDIO
    TITLE "5:cjc157_1640"
    INDEX 01 00:24:06
  TRACK 21 AUDIO
    TITLE "0:"
    INDEX 01 00:27:18
  TRACK 22 AUDIO
    TITLE "5:cjc157_1641"
    INDEX 01 00:27:67
  TRACK 23 AUDIO
    TITLE "0:"
    INDEX 01 00:29:66
  TRACK 24 AUDIO
    TITLE "3:cjc157_1642"
    INDEX 01 00:30:38
  TRACK 25 AUDIO
    TITLE "0:"
    INDEX 01 00:32:07
  TRACK 26 AUDIO
    TITLE "4:cjc157_1643"
    INDEX 01 00:32:52
  TRACK 27 AUDIO
    TITLE "0:"
    INDEX 01 00:33:54
  TRACK 28 AUDIO
    TITLE "5:cjc157_1644"
    INDEX 01 00:34:26
  TRACK 29 AUDIO
    TITLE "0:"
    INDEX 01 00:37:03
  TRACK 30 AUDIO
    TITLE "5:cjc157_1645"
    INDEX 01 00:37:59
  TRACK 31 AUDIO
    TITLE "0:"
    INDEX 01 00:39:68
  TRACK 32 AUDIO
    TITLE "5:cjc157_1646"
    INDEX 01 00:40:36
  TRACK 33 AUDIO
    TITLE "0:"
    INDEX 01 00:42:39
  TRACK 34 AUDIO
    TITLE "5:cjc157_1647"
    INDEX 01 00:43:07
  TRACK 35 AUDIO
    TITLE "0:"
    INDEX 01 00:44:28
  TRACK 36 AUDIO
    TITLE "3:cjc157_1648"
    INDEX 01 00:45:00
  TRACK 37 AUDIO
    TITLE "0:"
    INDEX 01 00:46:35
  TRACK 38 AUDIO
    TITLE "4:cjc157_1649"
    INDEX 01 00:47:07
  TRACK 39 AUDIO
    TITLE "0:"
    INDEX 01 00:48:12
  TRACK 40 AUDIO
    TITLE "5:cjc157_1650"
    INDEX 01 00:48:65
  TRACK 41 AUDIO
    TITLE "0:"
    INDEX 01 00:50:56
  TRACK 42 AUDIO
    TITLE "3:cjc157_1651"
    INDEX 01 00:51:24
  TRACK 43 AUDIO
    TITLE "0:"
    INDEX 01 00:52:57
  TRACK 44 AUDIO
    TITLE "4:cjc157_1652"
    INDEX 01 00:53:27
  TRACK 45 AUDIO
    TITLE "0:"
    INDEX 01 00:54:50
  TRACK 46 AUDIO
    TITLE "5:cjc157_1653"
    INDEX 01 00:55:16
  TRACK 47 AUDIO
    TITLE "0:"
    INDEX 01 00:58:28
  TRACK 48 AUDIO
    TITLE "3:cjc157_1654"
    INDEX 01 00:58:71
  TRACK 49 AUDIO
    TITLE "0:"
    INDEX 01 01:00:35
  TRACK 50 AUDIO
    TITLE "4:cjc157_1655"
    INDEX 01 01:01:05
  TRACK 51 AUDIO
    TITLE "0:"
    INDEX 01 01:04:05
  TRACK 52 AUDIO
    TITLE "5:cjc157_1656"
    INDEX 01 01:04:58
  TRACK 53 AUDIO
    TITLE "0:"
    INDEX 01 01:09:24
  TRACK 54 AUDIO
    TITLE "5:cjc157_1657"
    INDEX 01 01:10:00
  TRACK 55 AUDIO
    TITLE "0:"
    INDEX 01 01:12:21
  TRACK 56 AUDIO
    TITLE "3:cjc157_1658"
    INDEX 01 01:12:64
  TRACK 57 AUDIO
    TITLE "0:"
    INDEX 01 01:14:12
  TRACK 58 AUDIO
    TITLE "4:cjc157_1659"
    INDEX 01 01:14:57
  TRACK 59 AUDIO
    TITLE "0:"
    INDEX 01 01:15:72
  TRACK 60 AUDIO
    TITLE "5:cjc157_1660"
    INDEX 01 01:16:42
  TRACK 61 AUDIO
    TITLE "0:"
    INDEX 01 01:19:66
  TRACK 62 AUDIO
    TITLE "5:cjc157_1661"
    INDEX 01 01:20:34
  TRACK 63 AUDIO
    TITLE "0:"
    INDEX 01 01:23:30
  TRACK 64 AUDIO
    TITLE "3:cjc157_1662"
    INDEX 01 01:23:73
  TRACK 65 AUDIO
    TITLE "0:"
    INDEX 01 01:25:45
  TRACK 66 AUDIO
    TITLE "4:cjc157_1663"
    INDEX 01 01:26:11
  TRACK 67 AUDIO
    TITLE "0:"
    INDEX 01 01:29:17
  TRACK 68 AUDIO
    TITLE "5:cjc157_1664"
    INDEX 01 01:29:62
  TRACK 69 AUDIO
    TITLE "0:"
    INDEX 01 01:32:45
  TRACK 70 AUDIO
    TITLE "5:cjc157_1665"
    INDEX 01 01:33:19
  TRACK 71 AUDIO
    TITLE "0:"
    INDEX 01 01:35:29
  TRACK 72 AUDIO
    TITLE "3:cjc157_1666"
    INDEX 01 01:36:01
  TRACK 73 AUDIO
    TITLE "0:"
    INDEX 01 01:37:56
  TRACK 74 AUDIO
    TITLE "4:cjc157_1667"
    INDEX 01 01:38:24
  TRACK 75 AUDIO
    TITLE "0:"
    INDEX 01 01:39:33
  TRACK 76 AUDIO
    TITLE "5:cjc157_1668"
    INDEX 01 01:40:01
  TRACK 77 AUDIO
    TITLE "0:"
    INDEX 01 01:42:71
  TRACK 78 AUDIO
    TITLE "5:cjc157_1669"
    INDEX 01 01:43:43
  TRACK 79 AUDIO
    TITLE "0:"
    INDEX 01 01:45:53
  TRACK 80 AUDIO
    TITLE "5:cjc157_1670"
    INDEX 01 01:46:25
  TRACK 81 AUDIO
    TITLE "0:"
    INDEX 01 01:47:39
